{
    "asset" : {
        "generator" : "Khronos glTF Blender I/O v1.4.40",
        "version" : "2.0"
    },
    "scene" : 0,
    "scenes" : [
        {
            "name" : "Scene",
            "nodes" : [
                0
            ]
        }
    ],
    "nodes" : [
        {
            "mesh" : 0,
            "name" : "building"
        }
    ],
    "materials" : [
        {
            "doubleSided" : true,
            "name" : "wall",
            "pbrMetallicRoughness" : {
                "baseColorTexture" : {
                    "index" : 0,
                    "texCoord" : 0
                },
                "metallicFactor" : 0,
                "roughnessFactor" : 0.5
            }
        },
        {
            "doubleSided" : true,
            "name" : "wings",
            "pbrMetallicRoughness" : {
                "baseColorTexture" : {
                    "index" : 1,
                    "texCoord" : 0
                },
                "metallicFactor" : 0,
                "roughnessFactor" : 0.5
            }
        },
        {
            "doubleSided" : true,
            "name" : "windows",
            "pbrMetallicRoughness" : {
                "baseColorTexture" : {
                    "index" : 2,
                    "texCoord" : 0
                },
                "metallicFactor" : 0,
                "roughnessFactor" : 0.5
            }
        },
        {
            "doubleSided" : true,
            "name" : "door",
            "pbrMetallicRoughness" : {
                "baseColorTexture" : {
                    "index" : 3,
                    "texCoord" : 0
                },
                "metallicFactor" : 0,
                "roughnessFactor" : 0.5
            }
        },
        {
            "doubleSided" : true,
            "name" : "roof",
            "pbrMetallicRoughness" : {
                "baseColorTexture" : {
                    "index" : 4,
                    "texCoord" : 0
                },
                "metallicFactor" : 0,
                "roughnessFactor" : 0.5
            }
        }
    ],
    "meshes" : [
        {
            "name" : "Cube.001",
            "primitives" : [
                {
                    "attributes" : {
                        "POSITION" : 0,
                        "NORMAL" : 1,
                        "TEXCOORD_0" : 2
                    },
                    "indices" : 3,
                    "material" : 0
                },
                {
                    "attributes" : {
                        "POSITION" : 4,
                        "NORMAL" : 5,
                        "TEXCOORD_0" : 6
                    },
                    "indices" : 7,
                    "material" : 1
                },
                {
                    "attributes" : {
                        "POSITION" : 8,
                        "NORMAL" : 9,
                        "TEXCOORD_0" : 10
                    },
                    "indices" : 11,
                    "material" : 2
                },
                {
                    "attributes" : {
                        "POSITION" : 12,
                        "NORMAL" : 13,
                        "TEXCOORD_0" : 14
                    },
                    "indices" : 15,
                    "material" : 3
                },
                {
                    "attributes" : {
                        "POSITION" : 16,
                        "NORMAL" : 17,
                        "TEXCOORD_0" : 18
                    },
                    "indices" : 19,
                    "material" : 4
                }
            ]
        }
    ],
    "textures" : [
        {
            "sampler" : 0,
            "source" : 0
        },
        {
            "sampler" : 0,
            "source" : 1
        },
        {
            "sampler" : 0,
            "source" : 2
        },
        {
            "sampler" : 0,
            "source" : 3
        },
        {
            "sampler" : 0,
            "source" : 4
        }
    ],
    "images" : [
        {
            "mimeType" : "image/jpeg",
            "name" : "red_brick_03_diff_1k",
            "uri" : "tex/red_brick_03_diff_1k.jpg"
        },
        {
            "mimeType" : "image/jpeg",
            "name" : "sandstone_blocks_08_diff_1k",
            "uri" : "tex/sandstone_blocks_08_diff_1k.jpg"
        },
        {
            "mimeType" : "image/jpeg",
            "name" : "TexturesCom_WindowsHouseOld0341_M",
            "uri" : "tex/TexturesCom_WindowsHouseOld0341_M.jpg"
        },
        {
            "mimeType" : "image/jpeg",
            "name" : "TexturesCom_DoorsWoodPanelled0170_S",
            "uri" : "tex/TexturesCom_DoorsWoodPanelled0170_S.jpg"
        },
        {
            "mimeType" : "image/jpeg",
            "name" : "TexturesCom_RooftilesBitumen0020_1_seamless_S",
            "uri" : "tex/TexturesCom_RooftilesBitumen0020_1_seamless_S.jpg"
        }
    ],
    "accessors" : [
        {
            "bufferView" : 0,
            "componentType" : 5126,
            "count" : 911,
            "max" : [
                17,
                12,
                4
            ],
            "min" : [
                -17,
                0,
                -4
            ],
            "type" : "VEC3"
        },
        {
            "bufferView" : 1,
            "componentType" : 5126,
            "count" : 911,
            "type" : "VEC3"
        },
        {
            "bufferView" : 2,
            "componentType" : 5126,
            "count" : 911,
            "type" : "VEC2"
        },
        {
            "bufferView" : 3,
            "componentType" : 5123,
            "count" : 2154,
            "type" : "SCALAR"
        },
        {
            "bufferView" : 4,
            "componentType" : 5126,
            "count" : 2227,
            "max" : [
                17,
                9,
                1.0000008344650269
            ],
            "min" : [
                -17,
                0,
                -1.0000008344650269
            ],
            "type" : "VEC3"
        },
        {
            "bufferView" : 5,
            "componentType" : 5126,
            "count" : 2227,
            "type" : "VEC3"
        },
        {
            "bufferView" : 6,
            "componentType" : 5126,
            "count" : 2227,
            "type" : "VEC2"
        },
        {
            "bufferView" : 7,
            "componentType" : 5123,
            "count" : 4788,
            "type" : "SCALAR"
        },
        {
            "bufferView" : 8,
            "componentType" : 5126,
            "count" : 184,
            "max" : [
                15.909090995788574,
                6.545454978942871,
                3.5999999046325684
            ],
            "min" : [
                -15.909090042114258,
                1.454545497894287,
                0.5999994277954102
            ],
            "type" : "VEC3"
        },
        {
            "bufferView" : 9,
            "componentType" : 5126,
            "count" : 184,
            "type" : "VEC3"
        },
        {
            "bufferView" : 10,
            "componentType" : 5126,
            "count" : 184,
            "type" : "VEC2"
        },
        {
            "bufferView" : 11,
            "componentType" : 5123,
            "count" : 276,
            "type" : "SCALAR"
        },
        {
            "bufferView" : 12,
            "componentType" : 5126,
            "count" : 16,
            "max" : [
                1.3333330154418945,
                2.1818180084228516,
                3.5999999046325684
            ],
            "min" : [
                -1.3333336114883423,
                0,
                3.5999999046325684
            ],
            "type" : "VEC3"
        },
        {
            "bufferView" : 13,
            "componentType" : 5126,
            "count" : 16,
            "type" : "VEC3"
        },
        {
            "bufferView" : 14,
            "componentType" : 5126,
            "count" : 16,
            "type" : "VEC2"
        },
        {
            "bufferView" : 15,
            "componentType" : 5123,
            "count" : 36,
            "type" : "SCALAR"
        },
        {
            "bufferView" : 16,
            "componentType" : 5126,
            "count" : 12,
            "max" : [
                17,
                12,
                4
            ],
            "min" : [
                -17,
                9,
                -4
            ],
            "type" : "VEC3"
        },
        {
            "bufferView" : 17,
            "componentType" : 5126,
            "count" : 12,
            "type" : "VEC3"
        },
        {
            "bufferView" : 18,
            "componentType" : 5126,
            "count" : 12,
            "type" : "VEC2"
        },
        {
            "bufferView" : 19,
            "componentType" : 5123,
            "count" : 18,
            "type" : "SCALAR"
        }
    ],
    "bufferViews" : [
        {
            "buffer" : 0,
            "byteLength" : 10932,
            "byteOffset" : 0
        },
        {
            "buffer" : 0,
            "byteLength" : 10932,
            "byteOffset" : 10932
        },
        {
            "buffer" : 0,
            "byteLength" : 7288,
            "byteOffset" : 21864
        },
        {
            "buffer" : 0,
            "byteLength" : 4308,
            "byteOffset" : 29152
        },
        {
            "buffer" : 0,
            "byteLength" : 26724,
            "byteOffset" : 33460
        },
        {
            "buffer" : 0,
            "byteLength" : 26724,
            "byteOffset" : 60184
        },
        {
            "buffer" : 0,
            "byteLength" : 17816,
            "byteOffset" : 86908
        },
        {
            "buffer" : 0,
            "byteLength" : 9576,
            "byteOffset" : 104724
        },
        {
            "buffer" : 0,
            "byteLength" : 2208,
            "byteOffset" : 114300
        },
        {
            "buffer" : 0,
            "byteLength" : 2208,
            "byteOffset" : 116508
        },
        {
            "buffer" : 0,
            "byteLength" : 1472,
            "byteOffset" : 118716
        },
        {
            "buffer" : 0,
            "byteLength" : 552,
            "byteOffset" : 120188
        },
        {
            "buffer" : 0,
            "byteLength" : 192,
            "byteOffset" : 120740
        },
        {
            "buffer" : 0,
            "byteLength" : 192,
            "byteOffset" : 120932
        },
        {
            "buffer" : 0,
            "byteLength" : 128,
            "byteOffset" : 121124
        },
        {
            "buffer" : 0,
            "byteLength" : 72,
            "byteOffset" : 121252
        },
        {
            "buffer" : 0,
            "byteLength" : 144,
            "byteOffset" : 121324
        },
        {
            "buffer" : 0,
            "byteLength" : 144,
            "byteOffset" : 121468
        },
        {
            "buffer" : 0,
            "byteLength" : 96,
            "byteOffset" : 121612
        },
        {
            "buffer" : 0,
            "byteLength" : 36,
            "byteOffset" : 121708
        }
    ],
    "samplers" : [
        {
            "magFilter" : 9729,
            "minFilter" : 9986
        }
    ],
    "buffers" : [
        {
            "byteLength" : 121744,
            "uri" : "building.bin"
        }
    ]
}
