{
    "asset" : {
        "generator" : "Khronos glTF Blender I/O v1.4.40",
        "version" : "2.0"
    },
    "scene" : 0,
    "scenes" : [
        {
            "name" : "Scene",
            "nodes" : [
                0
            ]
        }
    ],
    "nodes" : [
        {
            "mesh" : 0,
            "name" : "terrain"
        }
    ],
    "materials" : [
        {
            "doubleSided" : true,
            "name" : "ground",
            "pbrMetallicRoughness" : {
                "baseColorTexture" : {
                    "index" : 0,
                    "texCoord" : 0
                },
                "metallicFactor" : 0
            }
        },
        {
            "doubleSided" : true,
            "name" : "wall",
            "pbrMetallicRoughness" : {
                "baseColorTexture" : {
                    "index" : 1,
                    "texCoord" : 0
                },
                "metallicFactor" : 0,
                "roughnessFactor" : 0.5
            }
        },
        {
            "doubleSided" : true,
            "name" : "wings",
            "pbrMetallicRoughness" : {
                "baseColorTexture" : {
                    "index" : 2,
                    "texCoord" : 0
                },
                "metallicFactor" : 0,
                "roughnessFactor" : 0.5
            }
        },
        {
            "doubleSided" : true,
            "name" : "windows",
            "pbrMetallicRoughness" : {
                "baseColorTexture" : {
                    "index" : 3,
                    "texCoord" : 0
                },
                "metallicFactor" : 0,
                "roughnessFactor" : 0.5
            }
        },
        {
            "doubleSided" : true,
            "name" : "door",
            "pbrMetallicRoughness" : {
                "baseColorTexture" : {
                    "index" : 4,
                    "texCoord" : 0
                },
                "metallicFactor" : 0,
                "roughnessFactor" : 0.5
            }
        },
        {
            "doubleSided" : true,
            "name" : "roof",
            "pbrMetallicRoughness" : {
                "baseColorTexture" : {
                    "index" : 5,
                    "texCoord" : 0
                },
                "metallicFactor" : 0,
                "roughnessFactor" : 0.5
            }
        },
        {
            "doubleSided" : true,
            "name" : "roof.001",
            "pbrMetallicRoughness" : {
                "baseColorTexture" : {
                    "index" : 6,
                    "texCoord" : 0
                },
                "metallicFactor" : 0,
                "roughnessFactor" : 0.5
            }
        },
        {
            "doubleSided" : true,
            "name" : "wall.001",
            "pbrMetallicRoughness" : {
                "baseColorTexture" : {
                    "index" : 7,
                    "texCoord" : 0
                },
                "metallicFactor" : 0,
                "roughnessFactor" : 0.5
            }
        },
        {
            "alphaMode" : "BLEND",
            "doubleSided" : true,
            "name" : "tree",
            "pbrMetallicRoughness" : {
                "baseColorTexture" : {
                    "index" : 8,
                    "texCoord" : 0
                },
                "metallicFactor" : 0,
                "roughnessFactor" : 0.5
            }
        }
    ],
    "meshes" : [
        {
            "name" : "Plane",
            "primitives" : [
                {
                    "attributes" : {
                        "POSITION" : 0,
                        "NORMAL" : 1,
                        "TEXCOORD_0" : 2
                    },
                    "indices" : 3,
                    "material" : 0
                },
                {
                    "attributes" : {
                        "POSITION" : 4,
                        "NORMAL" : 5,
                        "TEXCOORD_0" : 6
                    },
                    "indices" : 7,
                    "material" : 1
                },
                {
                    "attributes" : {
                        "POSITION" : 8,
                        "NORMAL" : 9,
                        "TEXCOORD_0" : 10
                    },
                    "indices" : 11,
                    "material" : 2
                },
                {
                    "attributes" : {
                        "POSITION" : 12,
                        "NORMAL" : 13,
                        "TEXCOORD_0" : 14
                    },
                    "indices" : 15,
                    "material" : 3
                },
                {
                    "attributes" : {
                        "POSITION" : 16,
                        "NORMAL" : 17,
                        "TEXCOORD_0" : 18
                    },
                    "indices" : 19,
                    "material" : 4
                },
                {
                    "attributes" : {
                        "POSITION" : 20,
                        "NORMAL" : 21,
                        "TEXCOORD_0" : 22
                    },
                    "indices" : 23,
                    "material" : 5
                },
                {
                    "attributes" : {
                        "POSITION" : 24,
                        "NORMAL" : 25,
                        "TEXCOORD_0" : 26
                    },
                    "indices" : 27,
                    "material" : 6
                },
                {
                    "attributes" : {
                        "POSITION" : 28,
                        "NORMAL" : 29,
                        "TEXCOORD_0" : 30
                    },
                    "indices" : 31,
                    "material" : 7
                },
                {
                    "attributes" : {
                        "POSITION" : 32,
                        "NORMAL" : 33,
                        "TEXCOORD_0" : 34
                    },
                    "indices" : 35,
                    "material" : 8
                }
            ]
        }
    ],
    "textures" : [
        {
            "sampler" : 0,
            "source" : 0
        },
        {
            "sampler" : 0,
            "source" : 1
        },
        {
            "sampler" : 0,
            "source" : 2
        },
        {
            "sampler" : 0,
            "source" : 3
        },
        {
            "sampler" : 0,
            "source" : 4
        },
        {
            "sampler" : 0,
            "source" : 5
        },
        {
            "sampler" : 0,
            "source" : 6
        },
        {
            "sampler" : 0,
            "source" : 7
        },
        {
            "sampler" : 0,
            "source" : 8
        }
    ],
    "images" : [
        {
            "mimeType" : "image/jpeg",
            "name" : "ground",
            "uri" : "tex/ground.jpg"
        },
        {
            "mimeType" : "image/jpeg",
            "name" : "red_brick_03_diff_1k",
            "uri" : "tex/red_brick_03_diff_1k.jpg"
        },
        {
            "mimeType" : "image/jpeg",
            "name" : "sandstone_blocks_08_diff_1k",
            "uri" : "tex/sandstone_blocks_08_diff_1k.jpg"
        },
        {
            "mimeType" : "image/jpeg",
            "name" : "TexturesCom_WindowsHouseOld0341_M",
            "uri" : "tex/TexturesCom_WindowsHouseOld0341_M.jpg"
        },
        {
            "mimeType" : "image/jpeg",
            "name" : "TexturesCom_DoorsWoodPanelled0170_S",
            "uri" : "tex/TexturesCom_DoorsWoodPanelled0170_S.jpg"
        },
        {
            "mimeType" : "image/jpeg",
            "name" : "TexturesCom_RooftilesBitumen0020_1_seamless_S",
            "uri" : "tex/TexturesCom_RooftilesBitumen0020_1_seamless_S.jpg"
        },
        {
            "mimeType" : "image/jpeg",
            "name" : "roof",
            "uri" : "tex/roof.jpg"
        },
        {
            "mimeType" : "image/jpeg",
            "name" : "wall",
            "uri" : "tex/wall.jpg"
        },
        {
            "mimeType" : "image/png",
            "name" : "tree",
            "uri" : "tex/tree.png"
        }
    ],
    "accessors" : [
        {
            "bufferView" : 0,
            "componentType" : 5126,
            "count" : 28787,
            "max" : [
                100,
                3,
                100
            ],
            "min" : [
                -100,
                0,
                -100
            ],
            "type" : "VEC3"
        },
        {
            "bufferView" : 1,
            "componentType" : 5126,
            "count" : 28787,
            "type" : "VEC3"
        },
        {
            "bufferView" : 2,
            "componentType" : 5126,
            "count" : 28787,
            "type" : "VEC2"
        },
        {
            "bufferView" : 3,
            "componentType" : 5123,
            "count" : 61206,
            "type" : "SCALAR"
        },
        {
            "bufferView" : 4,
            "componentType" : 5126,
            "count" : 835,
            "max" : [
                -67,
                24,
                10
            ],
            "min" : [
                -83,
                0,
                -10
            ],
            "type" : "VEC3"
        },
        {
            "bufferView" : 5,
            "componentType" : 5126,
            "count" : 835,
            "type" : "VEC3"
        },
        {
            "bufferView" : 6,
            "componentType" : 5126,
            "count" : 835,
            "type" : "VEC2"
        },
        {
            "bufferView" : 7,
            "componentType" : 5123,
            "count" : 1896,
            "type" : "SCALAR"
        },
        {
            "bufferView" : 8,
            "componentType" : 5126,
            "count" : 1549,
            "max" : [
                -73,
                18,
                34
            ],
            "min" : [
                -77,
                0,
                -34
            ],
            "type" : "VEC3"
        },
        {
            "bufferView" : 9,
            "componentType" : 5126,
            "count" : 1549,
            "type" : "VEC3"
        },
        {
            "bufferView" : 10,
            "componentType" : 5126,
            "count" : 1549,
            "type" : "VEC2"
        },
        {
            "bufferView" : 11,
            "componentType" : 5123,
            "count" : 4032,
            "type" : "SCALAR"
        },
        {
            "bufferView" : 12,
            "componentType" : 5126,
            "count" : 184,
            "max" : [
                -67.80000305175781,
                13.090909957885742,
                31.81818199157715
            ],
            "min" : [
                -73.80000305175781,
                2.909090995788574,
                -31.818180084228516
            ],
            "type" : "VEC3"
        },
        {
            "bufferView" : 13,
            "componentType" : 5126,
            "count" : 184,
            "type" : "VEC3"
        },
        {
            "bufferView" : 14,
            "componentType" : 5126,
            "count" : 184,
            "type" : "VEC2"
        },
        {
            "bufferView" : 15,
            "componentType" : 5123,
            "count" : 276,
            "type" : "SCALAR"
        },
        {
            "bufferView" : 16,
            "componentType" : 5126,
            "count" : 12,
            "max" : [
                -67.80000305175781,
                4.363636016845703,
                2.6666667461395264
            ],
            "min" : [
                -67.80000305175781,
                0,
                -2.6666672229766846
            ],
            "type" : "VEC3"
        },
        {
            "bufferView" : 17,
            "componentType" : 5126,
            "count" : 12,
            "type" : "VEC3"
        },
        {
            "bufferView" : 18,
            "componentType" : 5126,
            "count" : 12,
            "type" : "VEC2"
        },
        {
            "bufferView" : 19,
            "componentType" : 5123,
            "count" : 36,
            "type" : "SCALAR"
        },
        {
            "bufferView" : 20,
            "componentType" : 5126,
            "count" : 74,
            "max" : [
                -67,
                24,
                34
            ],
            "min" : [
                -83,
                18,
                -34
            ],
            "type" : "VEC3"
        },
        {
            "bufferView" : 21,
            "componentType" : 5126,
            "count" : 74,
            "type" : "VEC3"
        },
        {
            "bufferView" : 22,
            "componentType" : 5126,
            "count" : 74,
            "type" : "VEC2"
        },
        {
            "bufferView" : 23,
            "componentType" : 5123,
            "count" : 168,
            "type" : "SCALAR"
        },
        {
            "bufferView" : 24,
            "componentType" : 5126,
            "count" : 13312,
            "max" : [
                30.849458694458008,
                6.000000476837158,
                42.61778259277344
            ],
            "min" : [
                -30.318286895751953,
                2.9979066848754883,
                -42.905738830566406
            ],
            "type" : "VEC3"
        },
        {
            "bufferView" : 25,
            "componentType" : 5126,
            "count" : 13312,
            "type" : "VEC3"
        },
        {
            "bufferView" : 26,
            "componentType" : 5126,
            "count" : 13312,
            "type" : "VEC2"
        },
        {
            "bufferView" : 27,
            "componentType" : 5123,
            "count" : 73728,
            "type" : "SCALAR"
        },
        {
            "bufferView" : 28,
            "componentType" : 5126,
            "count" : 13188,
            "max" : [
                30.859195709228516,
                2.9979496002197266,
                42.62751770019531
            ],
            "min" : [
                -30.328022003173828,
                0,
                -42.91547393798828
            ],
            "type" : "VEC3"
        },
        {
            "bufferView" : 29,
            "componentType" : 5126,
            "count" : 13188,
            "type" : "VEC3"
        },
        {
            "bufferView" : 30,
            "componentType" : 5126,
            "count" : 13188,
            "type" : "VEC2"
        },
        {
            "bufferView" : 31,
            "componentType" : 5123,
            "count" : 71664,
            "type" : "SCALAR"
        },
        {
            "bufferView" : 32,
            "componentType" : 5126,
            "count" : 18624,
            "max" : [
                106.4162826538086,
                22.247465133666992,
                107.86884307861328
            ],
            "min" : [
                -109.33226776123047,
                -1.6208587884902954,
                -110.19622802734375
            ],
            "type" : "VEC3"
        },
        {
            "bufferView" : 33,
            "componentType" : 5126,
            "count" : 18624,
            "type" : "VEC3"
        },
        {
            "bufferView" : 34,
            "componentType" : 5126,
            "count" : 18624,
            "type" : "VEC2"
        },
        {
            "bufferView" : 35,
            "componentType" : 5123,
            "count" : 27936,
            "type" : "SCALAR"
        }
    ],
    "bufferViews" : [
        {
            "buffer" : 0,
            "byteLength" : 345444,
            "byteOffset" : 0
        },
        {
            "buffer" : 0,
            "byteLength" : 345444,
            "byteOffset" : 345444
        },
        {
            "buffer" : 0,
            "byteLength" : 230296,
            "byteOffset" : 690888
        },
        {
            "buffer" : 0,
            "byteLength" : 122412,
            "byteOffset" : 921184
        },
        {
            "buffer" : 0,
            "byteLength" : 10020,
            "byteOffset" : 1043596
        },
        {
            "buffer" : 0,
            "byteLength" : 10020,
            "byteOffset" : 1053616
        },
        {
            "buffer" : 0,
            "byteLength" : 6680,
            "byteOffset" : 1063636
        },
        {
            "buffer" : 0,
            "byteLength" : 3792,
            "byteOffset" : 1070316
        },
        {
            "buffer" : 0,
            "byteLength" : 18588,
            "byteOffset" : 1074108
        },
        {
            "buffer" : 0,
            "byteLength" : 18588,
            "byteOffset" : 1092696
        },
        {
            "buffer" : 0,
            "byteLength" : 12392,
            "byteOffset" : 1111284
        },
        {
            "buffer" : 0,
            "byteLength" : 8064,
            "byteOffset" : 1123676
        },
        {
            "buffer" : 0,
            "byteLength" : 2208,
            "byteOffset" : 1131740
        },
        {
            "buffer" : 0,
            "byteLength" : 2208,
            "byteOffset" : 1133948
        },
        {
            "buffer" : 0,
            "byteLength" : 1472,
            "byteOffset" : 1136156
        },
        {
            "buffer" : 0,
            "byteLength" : 552,
            "byteOffset" : 1137628
        },
        {
            "buffer" : 0,
            "byteLength" : 144,
            "byteOffset" : 1138180
        },
        {
            "buffer" : 0,
            "byteLength" : 144,
            "byteOffset" : 1138324
        },
        {
            "buffer" : 0,
            "byteLength" : 96,
            "byteOffset" : 1138468
        },
        {
            "buffer" : 0,
            "byteLength" : 72,
            "byteOffset" : 1138564
        },
        {
            "buffer" : 0,
            "byteLength" : 888,
            "byteOffset" : 1138636
        },
        {
            "buffer" : 0,
            "byteLength" : 888,
            "byteOffset" : 1139524
        },
        {
            "buffer" : 0,
            "byteLength" : 592,
            "byteOffset" : 1140412
        },
        {
            "buffer" : 0,
            "byteLength" : 336,
            "byteOffset" : 1141004
        },
        {
            "buffer" : 0,
            "byteLength" : 159744,
            "byteOffset" : 1141340
        },
        {
            "buffer" : 0,
            "byteLength" : 159744,
            "byteOffset" : 1301084
        },
        {
            "buffer" : 0,
            "byteLength" : 106496,
            "byteOffset" : 1460828
        },
        {
            "buffer" : 0,
            "byteLength" : 147456,
            "byteOffset" : 1567324
        },
        {
            "buffer" : 0,
            "byteLength" : 158256,
            "byteOffset" : 1714780
        },
        {
            "buffer" : 0,
            "byteLength" : 158256,
            "byteOffset" : 1873036
        },
        {
            "buffer" : 0,
            "byteLength" : 105504,
            "byteOffset" : 2031292
        },
        {
            "buffer" : 0,
            "byteLength" : 143328,
            "byteOffset" : 2136796
        },
        {
            "buffer" : 0,
            "byteLength" : 223488,
            "byteOffset" : 2280124
        },
        {
            "buffer" : 0,
            "byteLength" : 223488,
            "byteOffset" : 2503612
        },
        {
            "buffer" : 0,
            "byteLength" : 148992,
            "byteOffset" : 2727100
        },
        {
            "buffer" : 0,
            "byteLength" : 55872,
            "byteOffset" : 2876092
        }
    ],
    "samplers" : [
        {
            "magFilter" : 9729,
            "minFilter" : 9986
        }
    ],
    "buffers" : [
        {
            "byteLength" : 2931964,
            "uri" : "terrain.bin"
        }
    ]
}
